<svg xmlns="http://www.w3.org/2000/svg" xmlns:xlink="http://www.w3.org/1999/xlink" width="44.314" height="36.005" viewBox="0 0 44.314 36.005"><defs><style>.a{fill:url(#a);}.b{fill:#fff;}.c{filter:url(#b);}</style><linearGradient id="a" x1="0.5" y1="0.35" x2="0.697" y2="1.787" gradientUnits="objectBoundingBox"><stop offset="0" stop-color="#4ceabf"/><stop offset="1" stop-color="#bf30c8"/></linearGradient><filter id="b"><feOffset input="SourceAlpha"/><feGaussianBlur stdDeviation="3" result="c"/><feFlood flood-color="#fff" flood-opacity="0.502" result="d"/><feComposite operator="out" in="SourceGraphic" in2="c"/><feComposite operator="in" in="d"/><feComposite operator="in" in2="SourceGraphic"/></filter></defs><g data-type="innerShadowGroup"><path class="a" d="M44.314,6.248a16.774,16.774,0,0,1-5.171,1.479A9.826,9.826,0,0,0,43.2,2.736a16.848,16.848,0,0,1-5.719,2.221A9.667,9.667,0,0,0,30.653,2,9.061,9.061,0,0,0,21.6,11.045a6.828,6.828,0,0,0,.188,2.034A25.258,25.258,0,0,1,3.137,3.659,7.948,7.948,0,0,0,1.846,8.275a9.259,9.259,0,0,0,4.061,7.573,13.131,13.131,0,0,1-4.061-1.111v.188a8.962,8.962,0,0,0,7.2,8.864,9.486,9.486,0,0,1-2.395.368,5.061,5.061,0,0,1-1.666-.188,8.765,8.765,0,0,0,8.5,6.282A18.46,18.46,0,0,1,2.214,34.125,9.193,9.193,0,0,1,0,33.944a25.871,25.871,0,0,0,13.848,4.061c16.805,0,25.85-13.848,25.85-25.85V11.045a18.957,18.957,0,0,0,4.616-4.8" transform="translate(0 -2)"/><g class="c" transform="matrix(1, 0, 0, 1, 0, 0)"><path class="b" d="M44.314,6.248a16.774,16.774,0,0,1-5.171,1.479A9.826,9.826,0,0,0,43.2,2.736a16.848,16.848,0,0,1-5.719,2.221A9.667,9.667,0,0,0,30.653,2,9.061,9.061,0,0,0,21.6,11.045a6.828,6.828,0,0,0,.188,2.034A25.258,25.258,0,0,1,3.137,3.659,7.948,7.948,0,0,0,1.846,8.275a9.259,9.259,0,0,0,4.061,7.573,13.131,13.131,0,0,1-4.061-1.111v.188a8.962,8.962,0,0,0,7.2,8.864,9.486,9.486,0,0,1-2.395.368,5.061,5.061,0,0,1-1.666-.188,8.765,8.765,0,0,0,8.5,6.282A18.46,18.46,0,0,1,2.214,34.125,9.193,9.193,0,0,1,0,33.944a25.871,25.871,0,0,0,13.848,4.061c16.805,0,25.85-13.848,25.85-25.85V11.045a18.957,18.957,0,0,0,4.616-4.8" transform="translate(0 -2)"/></g></g></svg>