<svg xmlns="http://www.w3.org/2000/svg" xmlns:xlink="http://www.w3.org/1999/xlink" width="40" height="40"
    viewBox="0 0 40 40">
    <defs>
        <style>
            .a {
                fill: #fff;
            }

            .b,
            .d {
                fill: none;
            }

            .b {
                stroke: #bf30c8;
            }

            .c {
                stroke: none;
            }

            .e {
                filter: url(#d);
            }

            .f {
                filter: url(#a);
            }
        </style>
        <filter id="a">
            <feOffset input="SourceAlpha" />
            <feGaussianBlur stdDeviation="3" result="b" />
            <feFlood flood-color="#fff" flood-opacity="0.502" result="c" />
            <feComposite operator="out" in="SourceGraphic" in2="b" />
            <feComposite operator="in" in="c" />
            <feComposite operator="in" in2="SourceGraphic" />
        </filter>
        <filter id="d">
            <feOffset dy="3" input="SourceAlpha" />
            <feGaussianBlur stdDeviation="3" result="e" />
            <feFlood flood-opacity="0.251" result="f" />
            <feComposite operator="out" in="SourceGraphic" in2="e" />
            <feComposite operator="in" in="f" />
            <feComposite operator="in" in2="SourceGraphic" />
        </filter>
    </defs>
    <g>
        <g data-type="innerShadowGroup">
            <path class="a"
                d="M16.9,1.4c-1.3-0.6-2.6-1-4.1-1.3c0,0-0.1,0-0.1,0c-0.2,0.3-0.4,0.7-0.5,1C10.7,1,9.2,1,7.7,1.2
				c-0.1-0.3-0.3-0.7-0.5-1c0,0,0,0-0.1,0C5.7,0.4,4.4,0.8,3.1,1.4c0,0,0,0,0,0C0.5,5.3-0.3,9,0.1,12.8c0,0,0,0,0,0.1
				c1.7,1.3,3.4,2,5,2.5c0,0,0.1,0,0.1,0c0.4-0.5,0.7-1.1,1-1.7c0,0,0-0.1,0-0.1c-0.5-0.2-1.1-0.5-1.5-0.7c0,0-0.1-0.1,0-0.1
				c0.1-0.1,0.2-0.2,0.3-0.3c0,0,0.1,0,0.1,0c3.3,1.5,6.8,1.5,10.1,0c0,0,0.1,0,0.1,0c0.1,0.1,0.2,0.2,0.3,0.3c0,0,0,0.1,0,0.1
				c-0.5,0.3-1,0.5-1.5,0.7c0,0-0.1,0.1,0,0.1c0.3,0.6,0.6,1.1,1,1.7c0,0,0.1,0,0.1,0c1.6-0.5,3.3-1.3,5-2.5c0,0,0,0,0-0.1
				C20.3,8.5,19.2,4.7,16.9,1.4C17,1.4,16.9,1.4,16.9,1.4z M6.7,10.5c-1,0-1.8-0.9-1.8-2s0.8-2,1.8-2s1.8,0.9,1.8,2
				S7.7,10.5,6.7,10.5z M13.3,10.5c-1,0-1.8-0.9-1.8-2s0.8-2,1.8-2s1.8,0.9,1.8,2S14.3,10.5,13.3,10.5z"
                transform="translate(10,12.25)" />
            <g class="f">
                <path class="a"
                    d="M16.9,1.4c-1.3-0.6-2.6-1-4.1-1.3c0,0-0.1,0-0.1,0c-0.2,0.3-0.4,0.7-0.5,1C10.7,1,9.2,1,7.7,1.2
				c-0.1-0.3-0.3-0.7-0.5-1c0,0,0,0-0.1,0C5.7,0.4,4.4,0.8,3.1,1.4c0,0,0,0,0,0C0.5,5.3-0.3,9,0.1,12.8c0,0,0,0,0,0.1
				c1.7,1.3,3.4,2,5,2.5c0,0,0.1,0,0.1,0c0.4-0.5,0.7-1.1,1-1.7c0,0,0-0.1,0-0.1c-0.5-0.2-1.1-0.5-1.5-0.7c0,0-0.1-0.1,0-0.1
				c0.1-0.1,0.2-0.2,0.3-0.3c0,0,0.1,0,0.1,0c3.3,1.5,6.8,1.5,10.1,0c0,0,0.1,0,0.1,0c0.1,0.1,0.2,0.2,0.3,0.3c0,0,0,0.1,0,0.1
				c-0.5,0.3-1,0.5-1.5,0.7c0,0-0.1,0.1,0,0.1c0.3,0.6,0.6,1.1,1,1.7c0,0,0.1,0,0.1,0c1.6-0.5,3.3-1.3,5-2.5c0,0,0,0,0-0.1
				C20.3,8.5,19.2,4.7,16.9,1.4C17,1.4,16.9,1.4,16.9,1.4z M6.7,10.5c-1,0-1.8-0.9-1.8-2s0.8-2,1.8-2s1.8,0.9,1.8,2
				S7.7,10.5,6.7,10.5z M13.3,10.5c-1,0-1.8-0.9-1.8-2s0.8-2,1.8-2s1.8,0.9,1.8,2S14.3,10.5,13.3,10.5z"     
                transform="translate(10,12.25)" />
            </g>
        </g>
        <g data-type="innerShadowGroup">
            <g class="e">
                <circle class="a" cx="20" cy="20" r="20" />
            </g>
            <g class="b">
                <circle class="c" cx="20" cy="20" r="20" />
                <circle class="d" cx="20" cy="20" r="19.5" />
            </g>
        </g>
    </g>
</svg>