<svg xmlns="http://www.w3.org/2000/svg" xmlns:xlink="http://www.w3.org/1999/xlink" width="16.2" height="26.38" viewBox="0 0 16.2 26.38"><defs><style>.a{opacity:0.6;}.b{clip-path:url(#a);}.c{fill:#010101;}.d{opacity:0.45;}.e{clip-path:url(#b);}.f{opacity:0.8;}.g{clip-path:url(#c);}.h{clip-path:url(#d);}.i{clip-path:url(#e);}</style><clipPath id="a"><path d="M720.6,306.4h16.194v8.468H720.6Z" transform="translate(-720.6 -306.4)"/></clipPath><clipPath id="b"><path d="M720.6,0h8.1V18.221h-8.1Z" transform="translate(-720.6)"/></clipPath><clipPath id="c"><path d="M975,0h8.1V18.221H975Z" transform="translate(-975)"/></clipPath><clipPath id="d"><path d="M720.6,470.3h8.1v11.409h-8.1Z" transform="translate(-720.6 -470.3)"/></clipPath><clipPath id="e"><path d="M975,470.3h8.1v11.409H975Z" transform="translate(-975 -470.3)"/></clipPath></defs><g transform="translate(-720.6)"><g class="a" transform="translate(720.6 9.754)"><g class="b" transform="translate(0)"><path class="c" d="M728.7,306.4l-8.1,3.683,8.1,4.785,8.1-4.785Z" transform="translate(-720.6 -306.4)"/></g></g><g class="d" transform="translate(720.6)"><g class="e" transform="translate(0)"><path class="c" d="M720.6,13.437l8.1,4.785V0Z" transform="translate(-720.6)"/></g></g><g class="f" transform="translate(728.698)"><g class="g" transform="translate(0)"><path class="c" d="M975,0V18.221l8.1-4.785Z" transform="translate(-975)"/></g></g><g class="d" transform="translate(720.6 14.971)"><g class="h" transform="translate(0)"><path class="c" d="M720.6,470.3l8.1,11.409v-6.625Z" transform="translate(-720.6 -470.3)"/></g></g><g class="f" transform="translate(728.698 14.971)"><g class="i" transform="translate(0)"><path class="c" d="M975,475.085v6.624l8.1-11.409Z" transform="translate(-975 -470.3)"/></g></g></g></svg>