<svg xmlns="http://www.w3.org/2000/svg" xmlns:xlink="http://www.w3.org/1999/xlink" width="50" height="28.4"
    viewBox="0 0 50 28.4 ">
    <defs>
        <style>
            .a {
                fill: url(#a);
            }

            .b {
                fill: #fff;
            }

            .c {
                filter: url(#b);
            }
        </style>
        <linearGradient id="a" x1="0.5" y1="0.171" x2="0.5" y2="2.351" gradientUnits="objectBoundingBox">
            <stop offset="0" stop-color="#4ceabf" />
            <stop offset="1" stop-color="#bf30c8" />
        </linearGradient>
        <filter id="b">
            <feOffset input="SourceAlpha" />
            <feGaussianBlur stdDeviation="3" result="c" />
            <feFlood flood-color="#fff" flood-opacity="0.502" result="d" />
            <feComposite operator="out" in="SourceGraphic" in2="c" />
            <feComposite operator="in" in="d" />
            <feComposite operator="in" in2="SourceGraphic" />
        </filter>
    </defs>
    <g data-type="innerShadowGroup">
        <path class="a"
            d="M14.1,0c7.8,0,14.1,6.4,14.1,14.2s-6.3,14.2-14.1,14.2S0,22,0,14.2S6.3,0,14.1,0z M36.6,0.8c3.9,0,7.1,6,7.1,13.4h0
		c0,7.4-3.2,13.4-7.1,13.4s-7.1-6-7.1-13.4S32.7,0.8,36.6,0.8z M47.5,2.2c1.4,0,2.5,5.4,2.5,12c0,6.6-1.1,12-2.5,12
		c-1.4,0-2.5-5.4-2.5-12S46.2,2.2,47.5,2.2z"
            />
        <g class="c" transform="matrix(1, 0, 0, 1, 0, 0)">
            <path class="b"
               d="M14.1,0c7.8,0,14.1,6.4,14.1,14.2s-6.3,14.2-14.1,14.2S0,22,0,14.2S6.3,0,14.1,0z M36.6,0.8c3.9,0,7.1,6,7.1,13.4h0
		c0,7.4-3.2,13.4-7.1,13.4s-7.1-6-7.1-13.4S32.7,0.8,36.6,0.8z M47.5,2.2c1.4,0,2.5,5.4,2.5,12c0,6.6-1.1,12-2.5,12
		c-1.4,0-2.5-5.4-2.5-12S46.2,2.2,47.5,2.2z"/>
        </g>
    </g>
</svg>