<svg xmlns="http://www.w3.org/2000/svg" width="286" height="48.166" viewBox="0 0 286 48.166"><defs><style>.a{fill:#4ceabf;}</style></defs><path class="a" d="M17.4-28.18a13.635,13.635,0,0,1,5.425,1.161,12.223,12.223,0,0,1,3.246,2.2,8.253,8.253,0,0,1,1.99,3.127,8.124,8.124,0,0,1,.19,4.383,8.019,8.019,0,0,1-1.469,2.914,8.737,8.737,0,0,1-2.7,2.18,7.938,7.938,0,0,1,3.364,1.848,8.211,8.211,0,0,1,1.706,2.322A7.852,7.852,0,0,1,29.862-5.2a9.948,9.948,0,0,1-.379,3.459A8.4,8.4,0,0,1,28.156.89a9.172,9.172,0,0,1-1.99,1.919,13.254,13.254,0,0,1-2.322,1.327,20.191,20.191,0,0,1-6.491,1.516A19.817,19.817,0,0,1,13.7,5.6a18.588,18.588,0,0,1-2.985-.569A15.207,15.207,0,0,1,8.35,4.159a10.627,10.627,0,0,1-1.8-1.066A8.923,8.923,0,0,1,3.754.108,14.5,14.5,0,0,1,1.906-5.1a34.691,34.691,0,0,1-.426-5.212,31.685,31.685,0,0,1,.284-4.454,27.537,27.537,0,0,1,.663-3.364,23.893,23.893,0,0,1,.948-2.89A9.98,9.98,0,0,1,4.939-23.8,11.641,11.641,0,0,1,7-25.787a9.99,9.99,0,0,1,2.322-1.3,19.177,19.177,0,0,1,2.345-.758A18.069,18.069,0,0,1,17.4-28.18ZM15.742-18.7a1.928,1.928,0,0,0-1.35.5,1.681,1.681,0,0,0-.545,1.3,2.573,2.573,0,0,0,.4,1.4,1.625,1.625,0,0,0,1.493.64,1.655,1.655,0,0,0,1.421-.64,2.3,2.3,0,0,0,.474-1.4,1.857,1.857,0,0,0-.474-1.256A1.783,1.783,0,0,0,15.742-18.7Zm.426,11.372a1.876,1.876,0,0,0-1.4.616,1.623,1.623,0,0,0-.5,1.374,1.87,1.87,0,0,0,.592,1.374,2.093,2.093,0,0,0,1.3.379A1.9,1.9,0,0,0,17.5-4.062a1.644,1.644,0,0,0,.521-1.279,2.2,2.2,0,0,0-.474-1.374A1.629,1.629,0,0,0,16.169-7.331ZM51.232-14.96a6.073,6.073,0,0,1,1.09-1.99,6.6,6.6,0,0,1,1.635-1.4,4.976,4.976,0,0,1,2.677-.64,4.935,4.935,0,0,1,2.322.521,6.143,6.143,0,0,1,1.753,1.374,8.283,8.283,0,0,1,1.279,1.943,14.685,14.685,0,0,1,.853,2.227,22.954,22.954,0,0,1,.9,6.018,28.209,28.209,0,0,1-.095,4.715,19.373,19.373,0,0,1-.687,3.459,10.164,10.164,0,0,1-1.066,2.417,6.825,6.825,0,0,1-1.279,1.54A4.99,4.99,0,0,1,56.965,6.5a5.663,5.663,0,0,1-2.417-.426,5.448,5.448,0,0,1-1.848-1.3A4.669,4.669,0,0,1,51.563,2.05a5.163,5.163,0,0,1-1.706,2.417A9.076,9.076,0,0,1,46.92,5.936a11.985,11.985,0,0,1-5.023.237,10.783,10.783,0,0,1-4.549-1.516A9.663,9.663,0,0,1,35.666,3.33,8.136,8.136,0,0,1,34.2,1.34a11.444,11.444,0,0,1-1.019-2.748,15.367,15.367,0,0,1-.379-3.6,18.2,18.2,0,0,1,.9-6.444,13.566,13.566,0,0,1,1.137-2.44,9.5,9.5,0,0,1,1.8-2.2,9.869,9.869,0,0,1,2.606-1.682,11.155,11.155,0,0,1,3.6-.877,10.66,10.66,0,0,1,4.264.308,8.4,8.4,0,0,1,2.559,1.3A4.8,4.8,0,0,1,51.232-14.96ZM49.147-7.521a1.876,1.876,0,0,0-1.4.616,1.623,1.623,0,0,0-.5,1.374,1.87,1.87,0,0,0,.592,1.374,2.093,2.093,0,0,0,1.3.379,1.9,1.9,0,0,0,1.327-.474,1.644,1.644,0,0,0,.521-1.279A2.2,2.2,0,0,0,50.521-6.9,1.629,1.629,0,0,0,49.147-7.521ZM74.259-30.6a5.885,5.885,0,0,1,2.559.782A5.552,5.552,0,0,1,78.524-28.2a7.267,7.267,0,0,1,1,2.156,12.454,12.454,0,0,1,.426,2.369,23.746,23.746,0,0,1-.426,6.349,12.247,12.247,0,0,1,4.454-.948,15.806,15.806,0,0,1,2.037.142,8.967,8.967,0,0,1,2.2.592,11.881,11.881,0,0,1,2.227,1.208,12.874,12.874,0,0,1,2.2,1.943,8.527,8.527,0,0,1,1.587,2.819,13.683,13.683,0,0,1,.734,3.483,16.419,16.419,0,0,1-.118,3.625,11.486,11.486,0,0,1-.924,3.246,11.932,11.932,0,0,1-1.8,2.89,12.245,12.245,0,0,1-1.9,1.8A9.011,9.011,0,0,1,88.142,4.7a15.763,15.763,0,0,1-5.52,1.421A17.569,17.569,0,0,1,77.268,5.7a16.4,16.4,0,0,1-4.62-1.872A11.994,11.994,0,0,1,69.284.913a11.6,11.6,0,0,1-1.753-3.127,22.717,22.717,0,0,1-1.042-3.7,29.762,29.762,0,0,1-.5-3.956q-.118-2.014-.118-3.909a63.125,63.125,0,0,1,.805-9.192A12.857,12.857,0,0,1,68-27a9.8,9.8,0,0,1,1-1.445,6.465,6.465,0,0,1,1.327-1.208,5.575,5.575,0,0,1,1.729-.782A6.557,6.557,0,0,1,74.259-30.6ZM80.7-8.042a1.876,1.876,0,0,0-1.4.616,1.623,1.623,0,0,0-.5,1.374A1.87,1.87,0,0,0,79.4-4.678a2.093,2.093,0,0,0,1.3.379,1.9,1.9,0,0,0,1.327-.474,1.643,1.643,0,0,0,.521-1.279,2.2,2.2,0,0,0-.474-1.374A1.629,1.629,0,0,0,80.7-8.042Zm44.966-10.235a4.94,4.94,0,0,1,2.322,2.227,8.016,8.016,0,0,1,.569,1.587,8.736,8.736,0,0,1,.237,2.156,14.994,14.994,0,0,1-.308,2.819A24.894,24.894,0,0,1,127.47-5.91q-1.374,3.7-2.772,6.7t-2.582,5.141q-1.374,2.511-2.653,4.454a15.946,15.946,0,0,1-3.032,3.885,10.241,10.241,0,0,1-1.587,1.208,6.724,6.724,0,0,1-1.9.806,6.367,6.367,0,0,1-2.132.166,6.505,6.505,0,0,1-2.345-.711A5.185,5.185,0,0,1,106.2,13.8a6.17,6.17,0,0,1-.853-2.582,9.672,9.672,0,0,1,.166-2.914,23.258,23.258,0,0,1,.758-2.843,23.625,23.625,0,0,1,.948-2.393q.5-1.066.782-1.635-.284-.284-.592-.545t-.545-.5q-.284-.237-.521-.474a27.022,27.022,0,0,1-2.8-2.417A24.291,24.291,0,0,1,101.5-4.773Q100.557-6,99.846-7.094a9.538,9.538,0,0,1-1.374-3.6,6.855,6.855,0,0,1-.095-1.635,7.174,7.174,0,0,1,.332-1.777,6.85,6.85,0,0,1,.924-1.824,8.284,8.284,0,0,1,1.729-1.777,7.249,7.249,0,0,1,3.175-.948,6.313,6.313,0,0,1,1.516.095,6.412,6.412,0,0,1,1.682.569,9.848,9.848,0,0,1,1.8,1.161,12.073,12.073,0,0,1,1.872,1.919q.805,1,1.469,1.966t1.327,1.919q.521-.948,1.516-2.606a14.784,14.784,0,0,1,2.416-3.032,8.726,8.726,0,0,1,3.317-2.014A5.672,5.672,0,0,1,125.669-18.277Zm42.928-9.9a13.635,13.635,0,0,1,5.425,1.161,12.223,12.223,0,0,1,3.246,2.2,8.253,8.253,0,0,1,1.99,3.127,8.124,8.124,0,0,1,.19,4.383,8.019,8.019,0,0,1-1.469,2.914,8.737,8.737,0,0,1-2.7,2.18,7.938,7.938,0,0,1,3.364,1.848,8.211,8.211,0,0,1,1.706,2.322,7.852,7.852,0,0,1,.711,2.843,9.947,9.947,0,0,1-.379,3.459A8.4,8.4,0,0,1,179.353.89a9.172,9.172,0,0,1-1.99,1.919,13.254,13.254,0,0,1-2.322,1.327,20.191,20.191,0,0,1-6.491,1.516A19.817,19.817,0,0,1,164.9,5.6a18.587,18.587,0,0,1-2.985-.569,15.208,15.208,0,0,1-2.369-.877,10.627,10.627,0,0,1-1.8-1.066,8.923,8.923,0,0,1-2.8-2.985A14.5,14.5,0,0,1,153.1-5.1a34.69,34.69,0,0,1-.426-5.212,31.684,31.684,0,0,1,.284-4.454,27.537,27.537,0,0,1,.663-3.364,23.894,23.894,0,0,1,.948-2.89,9.98,9.98,0,0,1,1.564-2.772,11.641,11.641,0,0,1,2.061-1.99,9.989,9.989,0,0,1,2.322-1.3,19.177,19.177,0,0,1,2.345-.758A18.069,18.069,0,0,1,168.6-28.18ZM166.939-18.7a1.928,1.928,0,0,0-1.35.5,1.681,1.681,0,0,0-.545,1.3,2.573,2.573,0,0,0,.4,1.4,1.625,1.625,0,0,0,1.493.64,1.655,1.655,0,0,0,1.421-.64,2.3,2.3,0,0,0,.474-1.4,1.857,1.857,0,0,0-.474-1.256A1.783,1.783,0,0,0,166.939-18.7Zm.426,11.372a1.876,1.876,0,0,0-1.4.616,1.623,1.623,0,0,0-.5,1.374,1.87,1.87,0,0,0,.592,1.374,2.093,2.093,0,0,0,1.3.379,1.9,1.9,0,0,0,1.327-.474,1.643,1.643,0,0,0,.521-1.279,2.2,2.2,0,0,0-.474-1.374A1.629,1.629,0,0,0,167.366-7.331ZM184.423-3.92a46.468,46.468,0,0,1-.332-5.662q0-2.961.142-5.52.142-2.938.426-5.781a17.307,17.307,0,0,1,1.137-4.691,12.916,12.916,0,0,1,.924-1.706,7.043,7.043,0,0,1,1.3-1.516,6.047,6.047,0,0,1,1.777-1.066,6.208,6.208,0,0,1,2.3-.4,6.061,6.061,0,0,1,3.364,1.137,10.716,10.716,0,0,1,1.279,1.185,7.608,7.608,0,0,1,1.208,1.8,14.039,14.039,0,0,1,.948,2.559,17.944,17.944,0,0,1,.545,3.412q.284,3.791.284,7.25t-.095,6.16q-.142,3.175-.426,5.923a9.88,9.88,0,0,1-1.09,3.648,9.612,9.612,0,0,1-.924,1.327A5.566,5.566,0,0,1,195.866,5.3a6.622,6.622,0,0,1-1.824.782,7.933,7.933,0,0,1-2.369.237,5.714,5.714,0,0,1-2.2-.5,6.513,6.513,0,0,1-1.729-1.161,6.815,6.815,0,0,1-1.279-1.635,15.6,15.6,0,0,1-.9-1.872A19.62,19.62,0,0,1,184.423-3.92ZM226.831.155a10.6,10.6,0,0,1-1.777,2.393,14.938,14.938,0,0,1-1.966,1.682,10.63,10.63,0,0,1-2.227,1.279,13.55,13.55,0,0,1-1.824.592q-.877.213-1.54.308a8.3,8.3,0,0,1-1.421.142,17.943,17.943,0,0,1-4.572-.521,14.562,14.562,0,0,1-3.435-1.35,10.3,10.3,0,0,1-2.488-1.919A10.849,10.849,0,0,1,203.945.534a12.51,12.51,0,0,1-1.706-6.018,16.978,16.978,0,0,1,.592-4.762A12.474,12.474,0,0,1,204.4-13.7a9.828,9.828,0,0,1,2.227-2.393,12.959,12.959,0,0,1,2.535-1.516,15.646,15.646,0,0,1,6.918-1.185,14.155,14.155,0,0,1,4.027.521,11.568,11.568,0,0,1,3.056,1.374,9.59,9.59,0,0,1,2.18,1.919,11.739,11.739,0,0,1,1.445,2.2A14.862,14.862,0,0,1,228.3-6.81a17.216,17.216,0,0,1-.4,3.933A13.926,13.926,0,0,1,226.831.155ZM215.79-7.331a1.876,1.876,0,0,0-1.4.616,1.623,1.623,0,0,0-.5,1.374,1.87,1.87,0,0,0,.592,1.374,2.093,2.093,0,0,0,1.3.379,1.9,1.9,0,0,0,1.327-.474,1.643,1.643,0,0,0,.521-1.279,2.2,2.2,0,0,0-.474-1.374A1.629,1.629,0,0,0,215.79-7.331ZM230.669,9.253a55.392,55.392,0,0,1-.284-9.1,38.631,38.631,0,0,1,.4-3.909,31.406,31.406,0,0,1,.877-3.98,24.355,24.355,0,0,1,1.445-3.791,14.636,14.636,0,0,1,2.156-3.293,11.558,11.558,0,0,1,4.17-2.985,17.735,17.735,0,0,1,5.283-1.374,20.179,20.179,0,0,1,5.591.213,15.963,15.963,0,0,1,5.094,1.777,12.033,12.033,0,0,1,2.132,1.706,13.034,13.034,0,0,1,1.682,2.132,10.736,10.736,0,0,1,1.3,2.985,15.078,15.078,0,0,1,.4,3.459,18.7,18.7,0,0,1-.355,3.862,15.055,15.055,0,0,1-1.185,3.6,8.066,8.066,0,0,1-2.037,2.724A11.232,11.232,0,0,1,255.023,4.8a12.046,12.046,0,0,1-2.345.853,11.52,11.52,0,0,1-2.227.332,14.008,14.008,0,0,1-2.014-.047A12.562,12.562,0,0,1,244.173,4.8a21.572,21.572,0,0,1,.332,6.4,11.752,11.752,0,0,1-.521,2.322,6.653,6.653,0,0,1-1.09,2.037A5.187,5.187,0,0,1,241.069,17a6.16,6.16,0,0,1-2.725.545,6.741,6.741,0,0,1-2.274-.355,7.006,7.006,0,0,1-1.777-.924,6.617,6.617,0,0,1-1.35-1.3,10.659,10.659,0,0,1-1-1.54A13.146,13.146,0,0,1,230.669,9.253ZM246.4-7.331a1.876,1.876,0,0,0-1.4.616,1.623,1.623,0,0,0-.5,1.374,1.87,1.87,0,0,0,.592,1.374,2.093,2.093,0,0,0,1.3.379,1.9,1.9,0,0,0,1.327-.474,1.643,1.643,0,0,0,.521-1.279,2.2,2.2,0,0,0-.474-1.374A1.629,1.629,0,0,0,246.4-7.331Zm30.751-2.085a23.876,23.876,0,0,1,3.6.758,13.844,13.844,0,0,1,2.677,1.09,9.246,9.246,0,0,1,1.848,1.3,7.271,7.271,0,0,1,1.161,1.35,6.1,6.1,0,0,1,1.042,3.459,7.91,7.91,0,0,1-.45,2.772A7.039,7.039,0,0,1,285.845,3.4a7.805,7.805,0,0,1-1.658,1.493,12.975,12.975,0,0,1-1.872,1.042,16.98,16.98,0,0,1-5.165,1.185,35.629,35.629,0,0,1-4.62-.095,21.212,21.212,0,0,1-3.388-.569,11.186,11.186,0,0,1-2.393-.9,6.552,6.552,0,0,1-1.54-1.09,4.157,4.157,0,0,1-1.374-3.08A5.088,5.088,0,0,1,264.144-.7a4.725,4.725,0,0,1,1-1.564,6.2,6.2,0,0,1,1.445-1.113,9.65,9.65,0,0,1,1.658-.734,16.44,16.44,0,0,1,4.6-.758,14.068,14.068,0,0,1-4.88-1.943,9.128,9.128,0,0,1-2.369-2.274,4.79,4.79,0,0,1-.853-2.7,6.313,6.313,0,0,1,.616-2.653,6.968,6.968,0,0,1,1.445-1.966,8.332,8.332,0,0,1,1.943-1.374,15.841,15.841,0,0,1,2.2-.924,19.01,19.01,0,0,1,5.923-.853,30.107,30.107,0,0,1,5.378.545,9.129,9.129,0,0,1,3.2,1.232,3.858,3.858,0,0,1,1.516,1.8,5.468,5.468,0,0,1,.332,2.156,3.736,3.736,0,0,1-.521,1.848,4.287,4.287,0,0,1-1.185,1.256,6.407,6.407,0,0,1-1.611.806,10.517,10.517,0,0,1-1.848.45A19.959,19.959,0,0,1,277.151-9.416Z" transform="translate(-1.48 30.621)"/></svg>