<svg xmlns="http://www.w3.org/2000/svg" xmlns:xlink="http://www.w3.org/1999/xlink" preserveAspectRatio="none" viewBox="0 0 316 65"><defs><style>.a{fill:url(#a);}</style><linearGradient id="a" x1="0.286" y1="1.562" x2="0.911" y2="-0.325" gradientUnits="objectBoundingBox"><stop offset="0" stop-color="#4ceabf"/><stop offset="1" stop-color="#bf30c8"/></linearGradient></defs><g transform="translate(-627 -1588)"><path class="a" d="M306,65H10A10.011,10.011,0,0,1,0,55V10A10.011,10.011,0,0,1,10,0H306a10.011,10.011,0,0,1,10,10V55A10.011,10.011,0,0,1,306,65ZM12,2A10.011,10.011,0,0,0,2,12V53A10.011,10.011,0,0,0,12,63H304a10.011,10.011,0,0,0,10-10V12A10.011,10.011,0,0,0,304,2Z" transform="translate(627 1588)"/></g></svg>