<svg xmlns="http://www.w3.org/2000/svg" xmlns:xlink="http://www.w3.org/1999/xlink" width="40" height="40"
    viewBox="0 0 40 40">
    <defs>
        <style>
            .a {
                fill: #fff;
            }

            .b,
            .d {
                fill: none;
            }

            .b {
                stroke: #bf30c8;
            }

            .c {
                stroke: none;
            }

            .e {
                filter: url(#d);
            }

            .f {
                filter: url(#a);
            }
        </style>
        <filter id="a">
            <feOffset input="SourceAlpha" />
            <feGaussianBlur stdDeviation="3" result="b" />
            <feFlood flood-color="#fff" flood-opacity="0.502" result="c" />
            <feComposite operator="out" in="SourceGraphic" in2="b" />
            <feComposite operator="in" in="c" />
            <feComposite operator="in" in2="SourceGraphic" />
        </filter>
        <filter id="d">
            <feOffset dy="3" input="SourceAlpha" />
            <feGaussianBlur stdDeviation="3" result="e" />
            <feFlood flood-opacity="0.251" result="f" />
            <feComposite operator="out" in="SourceGraphic" in2="e" />
            <feComposite operator="in" in="f" />
            <feComposite operator="in" in2="SourceGraphic" />
        </filter>
    </defs>
    <g>
        <g data-type="innerShadowGroup">
            <path class="a"
                d="M6.2,0c3.4,0,6.2,2.8,6.2,6.2s-2.8,6.2-6.2,6.2S0,9.7,0,6.2S2.8,0,6.2,0z M16.1,0.4c1.7,0,3.1,2.6,3.1,5.9h0
		c0,3.2-1.4,5.9-3.1,5.9S13,9.5,13,6.2S14.4,0.4,16.1,0.4z M20.9,1C21.5,1,22,3.3,22,6.2c0,2.9-0.5,5.3-1.1,5.3
		c-0.6,0-1.1-2.4-1.1-5.3S20.3,1,20.9,1z"
                transform="translate(9,13.75)" />
            <g class="f">
                <path class="a"
                    d="M6.2,0c3.4,0,6.2,2.8,6.2,6.2s-2.8,6.2-6.2,6.2S0,9.7,0,6.2S2.8,0,6.2,0z M16.1,0.4c1.7,0,3.1,2.6,3.1,5.9h0
		c0,3.2-1.4,5.9-3.1,5.9S13,9.5,13,6.2S14.4,0.4,16.1,0.4z M20.9,1C21.5,1,22,3.3,22,6.2c0,2.9-0.5,5.3-1.1,5.3
		c-0.6,0-1.1-2.4-1.1-5.3S20.3,1,20.9,1z"
                transform="translate(9,13.75)" />
            </g>
        </g>
        <g data-type="innerShadowGroup">
            <g class="e">
                <circle class="a" cx="20" cy="20" r="20" />
            </g>
            <g class="b">
                <circle class="c" cx="20" cy="20" r="20" />
                <circle class="d" cx="20" cy="20" r="19.5" />
            </g>
        </g>
    </g>
</svg>