<svg xmlns="http://www.w3.org/2000/svg" xmlns:xlink="http://www.w3.org/1999/xlink" width="46" height="35.6"
    viewBox="0 0 46 35.6">
    <defs>
        <style>
            .a {
                fill: url(#a);
            }

            .b {
                fill: #fff;
            }

            .c {
                filter: url(#b);
            }
        </style>
        <linearGradient id="a" x1="0.5" y1="0.171" x2="0.5" y2="2.351" gradientUnits="objectBoundingBox">
            <stop offset="0" stop-color="#4ceabf" />
            <stop offset="1" stop-color="#bf30c8" />
        </linearGradient>
        <filter id="b">
            <feOffset input="SourceAlpha" />
            <feGaussianBlur stdDeviation="3" result="c" />
            <feFlood flood-color="#fff" flood-opacity="0.502" result="d" />
            <feComposite operator="out" in="SourceGraphic" in2="c" />
            <feComposite operator="in" in="d" />
            <feComposite operator="in" in2="SourceGraphic" />
        </filter>
    </defs>
    <g data-type="innerShadowGroup">
        <path class="a"
            d="M38.9,3.2c-2.9-1.4-6.1-2.3-9.4-2.9c-0.1,0-0.1,0-0.1,0.1C29,1,28.6,2,28.2,2.7c-3.6-0.5-7.1-0.5-10.5,0
				C17.4,1.9,17,1,16.6,0.3c0-0.1-0.1-0.1-0.1-0.1C13.2,0.8,10,1.8,7.1,3.2c0,0-0.1,0-0.1,0.1c-6,8.9-7.6,17.6-6.8,26.2
				c0,0.1,0,0.1,0.1,0.1c4,2.9,7.8,4.7,11.5,5.8c0.1,0,0.1,0,0.1-0.1c0.9-1.2,1.7-2.5,2.3-3.8c0.1-0.1,0-0.2-0.1-0.2
				c-1.2-0.5-2.5-1-3.6-1.7c-0.1-0.1-0.1-0.2,0-0.3c0.3-0.2,0.5-0.4,0.7-0.6c0.1-0.1,0.1-0.1,0.1,0c7.5,3.4,15.7,3.4,23.1,0
				c0.1,0,0.1,0,0.1,0c0.3,0.2,0.5,0.4,0.7,0.6c0.1,0.1,0.1,0.2,0,0.3c-1.2,0.6-2.3,1.2-3.6,1.7c-0.1,0-0.1,0.1-0.1,0.2
				c0.7,1.4,1.5,2.6,2.3,3.8c0.1,0.1,0.1,0.1,0.1,0.1c3.8-1.2,7.6-2.9,11.5-5.8c0.1,0,0.1-0.1,0.1-0.1C46.8,19.5,44.2,10.9,38.9,3.2
				C39,3.2,38.9,3.2,38.9,3.2z M15.4,24.2c-2.3,0-4.1-2.1-4.1-4.7s1.8-4.7,4.1-4.7s4.1,2.1,4.1,4.7S17.7,24.2,15.4,24.2z M30.6,24.2
				c-2.3,0-4.1-2.1-4.1-4.7s1.8-4.7,4.1-4.7s4.1,2.1,4.1,4.7S33,24.2,30.6,24.2z"
            />
        <g class="c" transform="matrix(1, 0, 0, 1, 0, 0)">
            <path class="b"
                d="M38.9,3.2c-2.9-1.4-6.1-2.3-9.4-2.9c-0.1,0-0.1,0-0.1,0.1C29,1,28.6,2,28.2,2.7c-3.6-0.5-7.1-0.5-10.5,0
				C17.4,1.9,17,1,16.6,0.3c0-0.1-0.1-0.1-0.1-0.1C13.2,0.8,10,1.8,7.1,3.2c0,0-0.1,0-0.1,0.1c-6,8.9-7.6,17.6-6.8,26.2
				c0,0.1,0,0.1,0.1,0.1c4,2.9,7.8,4.7,11.5,5.8c0.1,0,0.1,0,0.1-0.1c0.9-1.2,1.7-2.5,2.3-3.8c0.1-0.1,0-0.2-0.1-0.2
				c-1.2-0.5-2.5-1-3.6-1.7c-0.1-0.1-0.1-0.2,0-0.3c0.3-0.2,0.5-0.4,0.7-0.6c0.1-0.1,0.1-0.1,0.1,0c7.5,3.4,15.7,3.4,23.1,0
				c0.1,0,0.1,0,0.1,0c0.3,0.2,0.5,0.4,0.7,0.6c0.1,0.1,0.1,0.2,0,0.3c-1.2,0.6-2.3,1.2-3.6,1.7c-0.1,0-0.1,0.1-0.1,0.2
				c0.7,1.4,1.5,2.6,2.3,3.8c0.1,0.1,0.1,0.1,0.1,0.1c3.8-1.2,7.6-2.9,11.5-5.8c0.1,0,0.1-0.1,0.1-0.1C46.8,19.5,44.2,10.9,38.9,3.2
				C39,3.2,38.9,3.2,38.9,3.2z M15.4,24.2c-2.3,0-4.1-2.1-4.1-4.7s1.8-4.7,4.1-4.7s4.1,2.1,4.1,4.7S17.7,24.2,15.4,24.2z M30.6,24.2
				c-2.3,0-4.1-2.1-4.1-4.7s1.8-4.7,4.1-4.7s4.1,2.1,4.1,4.7S33,24.2,30.6,24.2z" />
        </g>
    </g>
</svg>