<svg xmlns="http://www.w3.org/2000/svg" xmlns:xlink="http://www.w3.org/1999/xlink" width="1110" height="323.001" viewBox="0 0 1110 323.001"><defs><style>.a{fill:url(#a);}.b{filter:url(#b);}</style><linearGradient id="a" x1="0.5" y1="-0.162" x2="0.5" y2="1" gradientUnits="objectBoundingBox"><stop offset="0" stop-color="#4ceabf"/><stop offset="1" stop-color="#bf30c8"/></linearGradient><filter id="b" x="0" y="0" width="1110" height="323.001" filterUnits="userSpaceOnUse"><feOffset dy="20" input="SourceAlpha"/><feGaussianBlur stdDeviation="15" result="c"/><feFlood flood-opacity="0.412"/><feComposite operator="in" in2="c"/><feComposite in="SourceGraphic"/></filter></defs><g class="b" transform="matrix(1, 0, 0, 1, 0, 0)"><path class="a" d="M248,750H15A15,15,0,0,1,0,735V532a15,15,0,0,1,15-15H248a12,12,0,1,0,24,0h733a15,15,0,0,1,15,15V735a15,15,0,0,1-15,15H272a10.9,10.9,0,0,0-.957-4.5,10.346,10.346,0,0,0-2.574-3.472,13.366,13.366,0,0,0-16.937,0,10.346,10.346,0,0,0-2.574,3.472A10.9,10.9,0,0,0,248,750Zm12-50a12,12,0,1,0,12,12A12.014,12.014,0,0,0,260,700Zm0-39a12,12,0,1,0,12,12A12.014,12.014,0,0,0,260,661Zm0-39a12,12,0,1,0,12,12A12.014,12.014,0,0,0,260,622Zm0-39a12,12,0,1,0,12,12A12.014,12.014,0,0,0,260,583Zm0-39a12,12,0,1,0,12,12A12.014,12.014,0,0,0,260,544Z" transform="translate(45 -492)"/></g></svg>